# Blender 4.3.2
# www.blender.org
o Plane
v 6.000000 0.000000 -6.000000
v -6.000000 0.000000 -6.000000
v 6.000000 0.000000 6.000000
v -6.000000 0.000000 6.000000
vn -0.0000 1.0000 -0.0000
vt 1.000000 0.000000
vt 0.000000 1.000000
vt 0.000000 0.000000
vt 1.000000 1.000000
s 0
f 2/1/1 3/2/1 1/3/1
f 2/1/1 4/4/1 3/2/1
o Plane.001
v -6.000000 6.000000 -6.000000
v 6.000000 5.999998 -6.000000
v -6.000000 6.000002 6.000000
v 6.000000 6.000000 6.000000
vn -0.0000 -1.0000 -0.0000
vt 1.000000 0.000000
vt 0.000000 1.000000
vt 0.000000 0.000000
vt 1.000000 1.000000
s 0
f 6/5/2 7/6/2 5/7/2
f 6/5/2 8/8/2 7/6/2
o Plane.002
v -5.999999 0.000000 -6.000000
v -6.000000 6.000000 -6.000000
v -6.000000 0.000000 6.000000
v -6.000001 6.000000 6.000000
vn 1.0000 -0.0000 -0.0000
vt 1.000000 0.000000
vt 0.000000 1.000000
vt 0.000000 0.000000
vt 1.000000 1.000000
s 0
f 10/9/3 11/10/3 9/11/3
f 10/9/3 12/12/3 11/10/3
o Plane.003
v 6.000000 6.000000 -6.000000
v 5.999998 0.000000 -6.000000
v 6.000002 6.000000 6.000000
v 6.000000 0.000000 6.000000
vn -1.0000 -0.0000 -0.0000
vt 1.000000 0.000000
vt 0.000000 1.000000
vt 0.000000 0.000000
vt 1.000000 1.000000
s 0
f 14/13/4 15/14/4 13/15/4
f 14/13/4 16/16/4 15/14/4
o Plane.004
v 6.000001 5.999998 5.999999
v 5.999999 -0.000002 5.999999
v -5.999999 6.000002 6.000001
v -6.000001 0.000002 6.000001
vn -0.0000 -0.0000 -1.0000
vt 1.000000 0.000000
vt 0.000000 1.000000
vt 0.000000 0.000000
vt 1.000000 1.000000
s 0
f 18/17/5 19/18/5 17/19/5
f 18/17/5 20/20/5 19/18/5
o Plane.005
v -5.999999 6.000002 -6.000000
v -6.000001 0.000002 -6.000000
v 6.000001 5.999998 -6.000000
v 5.999999 -0.000002 -6.000000
vn -0.0000 -0.0000 1.0000
vt 1.000000 0.000000
vt 0.000000 1.000000
vt 0.000000 0.000000
vt 1.000000 1.000000
s 0
f 22/21/6 23/22/6 21/23/6
f 22/21/6 24/24/6 23/22/6
o Cube
v 0.340750 -0.000000 -0.947532
v 0.340750 1.000000 -0.947532
v 0.340750 -0.000000 0.052468
v 0.340750 1.000000 0.052468
v -0.659250 -0.000000 -0.947532
v -0.659250 1.000000 -0.947532
v -0.659250 -0.000000 0.052468
v -0.659250 1.000000 0.052468
vn 1.0000 -0.0000 -0.0000
vn -0.0000 -0.0000 1.0000
vn -1.0000 -0.0000 -0.0000
vn -0.0000 -0.0000 -1.0000
vn -0.0000 -1.0000 -0.0000
vn -0.0000 1.0000 -0.0000
vt 0.000000 1.000000
vt 1.000000 0.000000
vt 0.000000 0.000000
vt 1.000000 1.000000
s 0
f 26/25/7 27/26/7 25/27/7
f 28/25/8 31/26/8 27/27/8
f 32/28/9 29/27/9 31/26/9
f 30/28/10 25/27/10 29/26/10
f 31/28/11 25/27/11 27/25/11
f 28/25/12 30/26/12 32/28/12
f 26/25/7 28/28/7 27/26/7
f 28/25/8 32/28/8 31/26/8
f 32/28/9 30/25/9 29/27/9
f 30/28/10 26/25/10 25/27/10
f 31/28/11 29/26/11 25/27/11
f 28/25/12 26/27/12 30/26/12
o Icosphere
v -0.208804 1.000000 -0.434600
v -0.932404 1.552785 -0.960320
v 0.067581 1.552785 -1.285240
v 0.685621 1.552785 -0.434600
v 0.067581 1.552785 0.416040
v -0.932404 1.552785 0.091120
v -0.485189 2.447215 -1.285240
v 0.514796 2.447215 -0.960320
v 0.514796 2.447215 0.091120
v -0.485189 2.447215 0.416040
v -1.103229 2.447215 -0.434600
v -0.208804 3.000000 -0.434600
vn -0.1876 -0.7947 -0.5774
vn -0.6071 -0.7947 -0.0000
vn 0.4911 -0.7947 -0.3568
vn 0.4911 -0.7947 0.3568
vn -0.1876 -0.7947 0.5774
vn -0.9822 -0.1876 -0.0000
vn -0.3035 -0.1876 -0.9342
vn 0.7946 -0.1876 -0.5774
vn 0.7946 -0.1876 0.5774
vn -0.3035 -0.1876 0.9342
vn -0.7946 0.1876 -0.5774
vn 0.3035 0.1876 -0.9342
vn 0.9822 0.1876 -0.0000
vn 0.3035 0.1876 0.9342
vn -0.7946 0.1876 0.5774
vn -0.4911 0.7947 -0.3568
vn 0.1876 0.7947 -0.5774
vn 0.6071 0.7947 -0.0000
vn 0.1876 0.7947 0.5774
vn -0.4911 0.7947 0.3568
vt 0.500000 0.500000
vt 0.861800 0.237140
vt 0.361807 0.074680
vt 0.861800 0.762860
vt 0.052788 0.500000
vt 0.361807 0.925320
vt 0.237140 0.276393
vt 0.762860 0.276393
vt 0.500000 0.723607
vt 0.361807 0.276393
vt 0.861800 0.276393
vt 0.638193 0.723607
vt 0.500000 0.276393
vt 0.074680 0.276393
vt 0.237140 0.723607
vt 0.925320 0.276393
vt 0.762860 0.723607
vt 0.074680 0.723607
vt 0.138200 0.723607
vt 0.925320 0.723607
vt 0.638193 0.074680
vt 0.947212 0.500000
vt 0.138200 0.237140
vt 0.138200 0.762860
vt 0.638193 0.925320
s 0
f 33/29/13 34/30/13 35/31/13
f 34/30/14 33/29/14 38/32/14
f 33/29/15 35/31/15 36/33/15
f 33/29/16 36/33/16 37/34/16
f 33/29/17 37/34/17 38/32/17
f 34/35/18 38/36/18 43/37/18
f 35/38/19 34/39/19 39/40/19
f 36/41/20 35/42/20 40/43/20
f 37/44/21 36/41/21 41/45/21
f 38/39/22 37/38/22 42/40/22
f 34/35/23 43/37/23 39/46/23
f 35/38/24 39/40/24 40/47/24
f 36/41/25 40/43/25 41/45/25
f 37/38/26 41/47/26 42/40/26
f 38/36/27 42/48/27 43/37/27
f 39/49/28 43/50/28 44/29/28
f 40/51/29 39/49/29 44/29/29
f 41/52/30 40/51/30 44/29/30
f 42/53/31 41/52/31 44/29/31
f 43/50/32 42/53/32 44/29/32
o Cone
v 1.730085 0.000000 1.810232
v 1.230085 0.000000 1.676258
v 0.864060 0.000000 1.310232
v 0.730085 0.000000 0.810232
v 0.864060 0.000000 0.310232
v 1.230085 0.000000 -0.055793
v 1.730085 0.000000 -0.189768
v 2.230085 0.000000 -0.055793
v 2.596110 0.000000 0.310232
v 2.730085 0.000000 0.810232
v 2.596110 0.000000 1.310232
v 2.230085 0.000000 1.676258
v 1.730085 2.000000 0.810232
vn -0.2331 0.4349 0.8698
vn -0.6367 0.4349 0.6367
vn -0.8698 0.4349 0.2331
vn -0.8698 0.4349 -0.2331
vn -0.6367 0.4349 -0.6367
vn -0.2331 0.4349 -0.8698
vn 0.2331 0.4349 -0.8698
vn 0.6367 0.4349 -0.6367
vn 0.8698 0.4349 -0.2331
vn 0.8698 0.4349 0.2331
vn -0.0000 -1.0000 -0.0000
vn 0.6367 0.4349 0.6367
vn 0.2331 0.4349 0.8698
vt 0.135553 0.863570
vt 0.495217 0.503906
vt 0.363571 0.995217
vt 0.626863 0.995217
vt 0.854881 0.863570
vt 0.986527 0.635552
vt 0.986527 0.372260
vt 0.854881 0.144242
vt 0.626863 0.012596
vt 0.363571 0.012596
vt 0.135553 0.144242
vt 0.003906 0.372260
vt -0.847069 0.863571
vt 0.003906 0.635553
vt -0.619051 0.012596
vt 0.003906 0.635553
vt -0.847068 0.144242
vt -0.978715 0.372260
vt -0.978715 0.635553
vt -0.619051 0.995217
vt -0.355758 0.995217
vt -0.127740 0.863571
vt 0.003906 0.372260
vt -0.127740 0.144242
vt -0.355758 0.012596
s 0
f 45/54/33 57/55/33 46/56/33
f 46/56/34 57/55/34 47/57/34
f 47/57/35 57/55/35 48/58/35
f 48/58/36 57/55/36 49/59/36
f 49/59/37 57/55/37 50/60/37
f 50/60/38 57/55/38 51/61/38
f 51/61/39 57/55/39 52/62/39
f 52/62/40 57/55/40 53/63/40
f 53/63/41 57/55/41 54/64/41
f 54/64/42 57/55/42 55/65/42
f 48/66/43 52/67/43 56/68/43
f 55/65/44 57/55/44 56/69/44
f 56/69/45 57/55/45 45/54/45
f 56/68/43 45/70/43 46/71/43
f 46/71/43 47/72/43 56/68/43
f 47/72/43 48/66/43 56/68/43
f 48/66/43 49/73/43 50/74/43
f 50/74/43 51/75/43 48/66/43
f 51/75/43 52/67/43 48/66/43
f 52/67/43 53/76/43 54/77/43
f 54/77/43 55/78/43 56/68/43
f 52/67/43 54/77/43 56/68/43
o Cube.001
v -0.964054 0.000000 0.828334
v -0.964054 1.500000 0.828334
v -0.964054 0.000000 2.328334
v -0.964054 1.500000 2.328334
v -2.464054 0.000000 0.828334
v -2.464054 1.500000 0.828334
v -2.464054 0.000000 2.328334
v -2.464054 1.500000 2.328334
vn 1.0000 -0.0000 -0.0000
vn -0.0000 -0.0000 1.0000
vn -1.0000 -0.0000 -0.0000
vn -0.0000 -0.0000 -1.0000
vn -0.0000 -1.0000 -0.0000
vn -0.0000 1.0000 -0.0000
vt 0.000000 1.000000
vt 1.000000 0.000000
vt 0.000000 0.000000
vt 1.000000 1.000000
s 0
f 59/79/46 60/80/46 58/81/46
f 61/79/47 64/80/47 60/81/47
f 65/82/48 62/81/48 64/80/48
f 63/82/49 58/81/49 62/80/49
f 64/82/50 58/81/50 60/79/50
f 61/79/51 63/80/51 65/82/51
f 59/79/46 61/82/46 60/80/46
f 61/79/47 65/82/47 64/80/47
f 65/82/48 63/79/48 62/81/48
f 63/82/49 59/79/49 58/81/49
f 64/82/50 62/80/50 58/81/50
f 61/79/51 59/81/51 63/80/51
o light
v 0.750000 5.547802 -0.750000
v 0.750000 5.754014 -0.750000
v 0.750000 5.547802 0.750000
v 0.750000 5.754014 0.750000
v -0.750000 5.547802 -0.750000
v -0.750000 5.754014 -0.750000
v -0.750000 5.547802 0.750000
v -0.750000 5.754014 0.750000
vn 1.0000 -0.0000 -0.0000
vn -0.0000 -0.0000 1.0000
vn -1.0000 -0.0000 -0.0000
vn -0.0000 -0.0000 -1.0000
vn -0.0000 -1.0000 -0.0000
vn -0.0000 1.0000 -0.0000
vt 0.000000 1.000000
vt 1.000000 0.000000
vt 0.000000 0.000000
vt 1.000000 1.000000
s 0
f 67/83/52 68/84/52 66/85/52
f 69/83/53 72/84/53 68/85/53
f 73/86/54 70/85/54 72/84/54
f 71/86/55 66/85/55 70/84/55
f 72/86/56 66/85/56 68/83/56
f 69/83/57 71/84/57 73/86/57
f 67/83/52 69/86/52 68/84/52
f 69/83/53 73/86/53 72/84/53
f 73/86/54 71/83/54 70/85/54
f 71/86/55 67/83/55 66/85/55
f 72/86/56 70/84/56 66/85/56
f 69/83/57 67/85/57 71/84/57
